<svg xmlns="http://www.w3.org/2000/svg" width="64" height="64" fill="none" viewBox="0 0 64 64"><path stroke="#b29d62" stroke-linecap="round" stroke-linejoin="round" stroke-width="4" d="M14 27C7.37258 27 2 32.3726 2 39C2 45.6274 7.37258 51 14 51C20.6274 51 26 45.6274 26 39C26 32.3726 20.6274 27 14 27Z"/><path stroke="#b29d62" stroke-linecap="round" stroke-linejoin="round" stroke-width="4" d="M2 39C2 31.5739 4.94999 24.452 10.201 19.201C15.452 13.95 22.5739 11 30 11"/><path stroke="#b29d62" stroke-linecap="round" stroke-linejoin="round" stroke-width="4" d="M46 27C39.3726 27 34 32.3726 34 39C34 45.6274 39.3726 51 46 51C52.6274 51 58 45.6274 58 39C58 32.3726 52.6274 27 46 27Z"/><path stroke="#b29d62" stroke-linecap="round" stroke-linejoin="round" stroke-width="4" d="M34 39C34 31.5739 36.95 24.452 42.201 19.201C47.452 13.95 54.5739 11 62 11"/></svg>